<svg width="1024" height="887" viewBox="0 0 1024 887" fill="none" xmlns="http://www.w3.org/2000/svg">
<path d="M482.923 10.138C506.199 18.7061 523.579 15.6712 546.776 8.12719C584.157 -3.84689 622.347 -2.11986 658.041 14.7511C674.958 23.5804 699.414 40.8783 708.272 58.5947C712.859 58.1242 716.605 57.089 720.731 55.1251C762.072 36.2657 813.403 35.3661 855.89 51.0246C906.217 70.3118 936.459 110.46 965.42 154.089C967.204 156.773 968.988 159.458 970.772 162.142C971.627 163.429 972.482 164.716 973.363 166.041C975.387 169.079 977.422 172.109 979.466 175.133C986.6 185.695 993.391 196.409 999.722 207.474C1000.45 208.747 1000.45 208.747 1001.2 210.047C1013.58 231.882 1022.46 255.317 1023.69 280.652C1023.78 282.096 1023.86 283.54 1023.94 285.028C1025.13 324.723 1008.33 362.855 983.32 392.942C982.712 393.673 982.104 394.405 981.477 395.159C968.547 410.44 953.051 422.06 936.545 433.217C913.071 449.152 895.855 467.916 879.231 490.723C850.949 529.489 818.59 563.481 769.356 572.974C768.35 573.103 767.345 573.231 766.31 573.363C766.935 578.842 770.476 582.31 773.959 586.296C774.585 587.025 775.212 587.754 775.857 588.505C780.124 593.421 784.573 598.086 789.252 602.614C791.55 604.912 793.632 607.308 795.723 609.795C802.859 618.087 811.308 625.107 819.616 632.19C834.106 644.768 834.106 644.768 834.697 652.357C834.9 665.974 834.9 665.974 830.656 671.775C823.728 678.703 818.177 680.997 808.497 681.031C807.564 681.041 806.632 681.052 805.67 681.063C802.643 681.088 799.617 681.088 796.59 681.08C795.044 681.078 795.044 681.078 793.467 681.077C777.613 681.02 762.644 680.212 747.384 675.56C746.346 675.249 745.308 674.938 744.238 674.617C729.413 670.054 715.565 664.056 701.964 656.635C700.632 655.922 699.3 655.21 697.927 654.476C683.104 646.221 670.093 635.476 657.805 623.831C656.676 622.769 655.547 621.707 654.384 620.613C647.31 613.766 641.131 606.715 635.311 598.788C632.59 594.938 632.59 594.938 628.786 592.289C628.81 593.15 628.835 594.011 628.86 594.899C629.031 605.852 627.963 616.54 626.667 627.394C626.445 629.305 626.225 631.216 626.006 633.128C625.429 638.138 624.843 643.147 624.254 648.156C623.207 657.058 622.171 665.961 621.147 674.865C620.981 676.301 620.981 676.301 620.813 677.766C613.216 717.207 613.216 717.207 619.954 753.785C622.993 753.642 622.993 753.642 626.262 752.523C631.4 746.263 630.967 738.846 631.415 731.121C632.032 723.239 633.964 718.352 639.678 712.598C645.774 707.826 649.161 706.883 656.755 706.802C657.654 706.791 658.554 706.781 659.481 706.771C661.389 706.753 663.297 706.74 665.205 706.73C668.102 706.708 670.997 706.653 673.894 706.597C675.751 706.584 677.608 706.574 679.465 706.565C680.322 706.543 681.18 706.521 682.063 706.498C688.896 706.529 692.646 708.452 698.179 712.149C700.377 714.396 700.377 714.396 701.806 716.565C702.297 717.281 702.788 717.996 703.294 718.733C707.303 726.287 705.983 735.457 705.983 743.766C705.985 746.634 706.008 749.502 706.032 752.37C706.093 767.584 705.355 782.752 699.992 797.155C699.667 798.042 699.342 798.929 699.007 799.842C692.474 816.919 683.312 830.514 670.421 843.365C669.688 844.173 668.954 844.981 668.199 845.814C646.22 869.675 609.473 884.129 577.653 886.099C576.207 886.153 574.761 886.207 573.271 886.262C572.362 886.296 571.453 886.331 570.516 886.366C521.762 887.955 480.978 870.19 445.742 837.234C438.421 830.152 432.312 822.973 426.916 814.346C426.45 813.628 425.983 812.911 425.503 812.172C410.656 789.216 401.453 764.465 397.897 737.383C397.639 735.469 397.639 735.469 397.377 733.516C394.3 709.608 393.376 685.624 392.476 661.557C391.894 646.023 391.183 630.511 390.169 614.999C390.113 614.137 390.057 613.276 389.999 612.388C389.697 607.79 389.386 603.193 389.065 598.597C382.231 605.338 382.231 605.338 375.817 612.476C344.641 648.412 297.026 675.845 249.202 680.335C240.786 680.911 232.374 681.075 223.942 681.159C223.051 681.174 222.16 681.19 221.242 681.206C218.675 681.243 216.11 681.244 213.543 681.233C212.051 681.235 210.56 681.237 209.024 681.24C200.581 679.957 195.882 674.433 190.98 667.99C188.045 662.12 189.207 654.192 189.718 647.803C191.69 643.466 191.69 643.466 194.765 640.233C195.364 639.573 195.962 638.912 196.579 638.232C200.586 633.975 204.908 630.341 209.511 626.749C225.951 613.501 241.333 597.779 254.064 580.933C255.742 578.827 257.424 576.724 259.111 574.625C258.421 574.449 257.731 574.272 257.019 574.09C208.113 561.385 176.58 533.614 146.821 493.877C133.619 476.284 133.619 476.284 119.064 459.811C117.5 458.128 117.5 458.128 115.905 456.411C107.829 447.971 99.2507 441.322 89.6335 434.764C71.5384 422.354 53.4604 408.812 39.5775 391.68C38.6049 390.503 37.6323 389.325 36.6302 388.112C9.7001 354.831 -3.3732 312.887 0.746052 270.168C3.37711 249.94 10.937 231.517 20.6521 213.782C21.3423 212.521 22.0325 211.261 22.7437 209.962C29.457 197.951 36.9312 186.544 44.6242 175.143C45.8306 173.346 47.0364 171.549 48.2417 169.751C50.5785 166.267 52.919 162.786 55.2623 159.306C58.162 154.997 61.035 150.671 63.9044 146.341C68.077 140.077 72.3752 133.92 76.7973 127.83C77.5062 126.853 78.2151 125.876 78.9454 124.87C88.2228 112.146 98.1908 100.34 108.97 88.8752C109.783 87.9791 110.597 87.0829 111.435 86.1596C132.06 64.2338 159.59 51.4901 188.457 44.7161C189.329 44.4935 190.202 44.2709 191.101 44.0416C216.381 37.6695 245.201 38.8191 270.466 44.7161C272.057 45.0674 273.648 45.4187 275.286 45.7807C285.215 48.185 294.404 51.5849 303.734 55.7103C308.165 57.6455 310.968 58.5947 315.887 58.5947C318.132 56.4511 318.132 56.4511 320.066 53.548C321.228 51.9817 321.228 51.9817 322.412 50.3839C323.554 48.8274 323.554 48.8274 324.719 47.2395C343.528 22.5162 375.535 6.65466 405.546 1.10412C431.873 -1.79495 458.072 0.94675 482.923 10.138Z" fill="#38091D"/>
<path d="M529.909 235.936C539.312 244.051 542.037 252.88 543.472 264.876C547.688 296.178 558.459 327.732 579.115 352.011C580.068 353.257 581.021 354.503 582.003 355.786C599.055 377.615 624.257 393.035 651.031 399.955C652.368 400.119 653.704 400.283 655.082 400.452C666.097 402.038 666.097 402.038 669.908 406.895C671.846 410.99 673.317 415.036 674.688 419.353C675.205 420.788 675.722 422.222 676.255 423.7C678.353 429.619 680.193 435.405 681.311 441.591C679.877 442.34 678.442 443.09 676.965 443.863C663.863 450.845 652.277 458.524 640.937 468.086C640.27 468.628 639.603 469.17 638.916 469.728C635.31 472.665 632.066 475.614 629.109 479.205C628.475 479.968 627.841 480.73 627.187 481.516C626.728 482.081 626.27 482.645 625.797 483.226C620.792 481.558 620.445 479.698 618.055 475.075C617.327 473.673 616.599 472.271 615.849 470.826C614.723 468.611 614.723 468.611 613.575 466.351C612.809 464.884 612.044 463.417 611.256 461.906C605.61 450.932 605.61 450.932 605.61 446.637C604.777 446.637 603.945 446.637 603.087 446.637C603.116 447.314 603.145 447.991 603.175 448.688C603.349 456.222 602.665 463.463 601.65 470.926C600.734 477.763 600.055 484.603 599.44 491.472C598.174 505.135 596.572 518.749 594.903 532.368C594.054 539.306 593.216 546.246 592.377 553.186C592.211 554.558 592.045 555.931 591.874 557.345C590.282 570.517 588.766 583.697 587.277 596.882C587.078 598.641 586.879 600.401 586.68 602.16C586.581 603.036 586.482 603.911 586.38 604.813C585.571 611.935 584.734 619.054 583.89 626.172C580.903 651.443 578.091 676.718 575.652 702.049C575.505 703.567 575.505 703.567 575.355 705.115C575.174 706.988 574.995 708.86 574.819 710.733C574.455 714.505 574.014 718.226 573.39 721.964C570.048 742.027 572.758 762.859 584.59 779.59C590.971 787.702 599.41 793.47 609.395 796.125C612.718 796.393 615.857 796.547 619.173 796.519C620.062 796.512 620.951 796.505 621.867 796.498C634.476 796.206 642.796 792.886 652.293 784.77C653.054 784.145 653.815 783.521 654.599 782.877C656.368 781.423 658.118 779.945 659.863 778.461C653.712 800.799 637.95 817.124 618.212 828.618C589.472 843.609 555.79 846.048 524.862 836.499C492.963 825.583 466.783 801.592 451.99 771.414C450.082 767.071 448.316 762.71 446.637 758.274C446.145 756.973 445.652 755.672 445.144 754.332C439.693 738.997 438.453 723.15 437.254 707.018C437.137 705.488 437.137 705.488 437.017 703.927C435.197 679.984 434.017 656.004 432.873 632.021C432.113 616.28 431.171 600.578 429.908 584.869C429.168 575.599 428.553 566.33 428.033 557.045C427.961 555.765 427.889 554.484 427.815 553.165C427.67 550.573 427.526 547.98 427.382 545.387C426.266 525.422 425.011 505.551 422.654 485.69C421.176 473.114 420.539 460.551 420.142 447.899C419.309 447.899 418.477 447.899 417.619 447.899C417.289 448.999 416.958 450.098 416.618 451.231C415.101 455.455 413.247 458.898 410.916 462.724C406.92 469.412 403.326 476.205 399.955 483.226C395.984 481.514 393.902 479.773 391.281 476.366C378.28 461.175 360.287 451.418 343.179 441.591C348.542 412.651 348.542 412.651 355.796 403.74C362.696 399.328 370.97 398.311 378.904 396.88C400.839 392.28 418.278 378.535 434.021 363.366C434.85 362.616 435.68 361.867 436.534 361.094C463.474 336.079 476.021 295.359 480.497 260.018C482.089 248.743 486.847 241.446 495.557 234.211C506.631 226.09 519.186 228.633 529.909 235.936Z" fill="url(#paint0_linear_3_40)"/>
<path d="M292.712 99.6734C292.497 100.35 292.282 101.027 292.061 101.724C289.955 108.535 288.074 115.394 286.324 122.305C285.919 123.904 285.514 125.502 285.097 127.15C284.097 131.326 283.301 135.522 282.542 139.75C282.319 140.99 282.096 142.23 281.866 143.507C281.614 144.917 281.614 144.917 281.356 146.356C279.291 146.359 279.291 146.359 277.184 146.361C264.207 146.382 251.231 146.436 238.254 146.522C231.583 146.566 224.912 146.597 218.24 146.603C211.802 146.608 205.364 146.644 198.926 146.701C196.47 146.717 194.013 146.723 191.557 146.717C188.116 146.711 184.677 146.744 181.236 146.786C180.221 146.775 179.205 146.764 178.159 146.753C173.181 146.854 170.599 147.419 166.542 150.386C163.724 154.341 163.228 156.138 163.223 160.932C163.2 162.991 163.2 162.991 163.175 165.091C163.192 166.561 163.209 168.03 163.226 169.544C163.223 171.064 163.22 172.583 163.217 174.148C163.218 177.356 163.235 180.565 163.266 183.772C163.31 188.688 163.292 193.601 163.268 198.516C163.277 201.634 163.289 204.751 163.305 207.868C163.299 209.34 163.292 210.812 163.286 212.329C163.306 213.697 163.326 215.066 163.346 216.476C163.354 217.678 163.362 218.881 163.37 220.12C164.212 224.267 165.774 225.784 169.066 228.366C172.934 229.059 172.934 229.059 177.11 228.996C185.685 229.419 189.732 231.368 195.798 237.434C202.101 247.214 202.354 257.067 202.405 268.469C202.65 304.423 210.802 336.67 234.674 364.628C235.994 366.326 235.994 366.326 237.34 368.058C239.464 371.02 239.464 371.02 242.244 372.198C242.244 373.031 242.244 373.863 242.244 374.721C242.953 375.043 243.662 375.365 244.393 375.697C247.662 377.443 250.361 379.54 253.284 381.818C268.057 392.652 285.979 401.499 304.382 403.267C305.944 403.423 307.505 403.579 309.114 403.74C310.375 406.264 310.375 406.264 309.252 410.029C308.685 411.614 308.113 413.198 307.536 414.78C298.671 440.138 298.671 440.138 301.627 466.1C305.903 471.541 311.694 474.224 317.945 476.918C305.311 511.62 232.945 526.214 206.069 497.364C200.713 491.323 195.691 485.037 190.752 478.653C189.983 477.664 189.215 476.676 188.423 475.658C183.869 469.763 179.478 463.786 175.217 457.677C155.907 430.164 131.818 409.896 104.518 390.744C74.8345 369.895 53.0153 342.167 44.1592 306.59C40.6762 286.184 43.4654 265.735 52.991 247.291C53.5537 246.079 54.1164 244.868 54.6962 243.619C64.8974 222.136 78.4137 202.331 92.1033 182.945C93.3355 181.192 94.5676 179.439 95.7996 177.686C98.3293 174.092 100.867 170.503 103.409 166.917C105.982 163.288 108.536 159.647 111.078 155.996C135.985 120.277 160.983 93.3946 205.847 85.0555C234.786 81.9413 267.428 83.8714 292.712 99.6734Z" fill="url(#paint1_linear_3_40)"/>
<path d="M876.873 113.552C874.181 111.328 871.474 109.145 868.702 107.022C828.365 77.8616 774.644 78.1257 730.517 98.4116C730.517 103.458 730.517 103.458 731.764 107.293C735.503 117.418 737.919 127.182 739.474 137.867C739.825 140.28 740.214 142.688 740.611 145.094C742.016 146.499 742.016 146.499 749.047 146.579L752.168 146.595C754.405 146.616 756.642 146.638 758.879 146.659C762.55 146.685 766.222 146.711 769.893 146.745C777.689 146.82 785.485 146.89 793.281 146.954L794.113 146.961C803.063 147.034 812.013 147.107 820.964 147.192C824.679 147.228 828.395 147.262 832.111 147.289C834.463 147.306 836.814 147.325 839.166 147.347L842.443 147.378C846.911 147.401 851.358 146.846 855.424 148.879C860.545 154.633 861.06 159.141 861.108 166.731L861.053 170.722C861.05 173.538 861.045 176.354 861.038 179.17C860.99 183.589 860.944 188.006 860.939 192.426C860.939 195.319 860.933 198.212 860.92 201.105L860.895 205.261C860.879 212.774 861.361 220.212 857.948 227.104C853.797 228.487 850.245 228.723 845.883 228.996C840.789 229.314 837.442 229.402 833.192 232.269L830.9 234.043L828.618 235.738C822.533 243.22 822.533 243.22 821.584 264.466C820.753 284.896 820.331 305.754 812.562 324.959L811.265 328.039C806.884 339.936 801.227 350.061 793.533 360.142L791.709 362.499C788.4 366.809 785.138 370.61 781.059 374.228L777.2 377.245C758.504 392.01 739.306 398.245 716.247 403.281L714.115 403.74C714.115 408.787 714.115 408.787 714.766 411.241C720.175 427.294 733.021 458.218 715.757 470.511L711.986 472.818L708.186 475.163L705.284 476.918C706.822 483.016 708.914 488.474 711.617 494.15C712.091 495.128 715.787 504.357 716.247 505.306C721.413 516.111 749.349 516.364 762.69 516.03C782.459 512.419 794.89 515.494 808.111 500.259C810.249 497.502 820.834 492.477 823.133 489.845C829.549 482.532 835.413 475.063 840.836 466.982C847.196 457.502 854.083 448.571 861.358 439.777L862.995 437.806C867.17 432.73 871.393 427.969 876.321 423.612C878.825 421.498 881.336 419.398 883.788 417.224C891.148 410.65 898.499 404.28 906.74 398.824C917.23 392.006 927.826 385.276 936.907 376.598C959.79 353.603 979.546 324.2 979.526 290.693L979.464 286.64C979.485 279.693 979.501 273.153 977.951 266.359L976.546 262.431C966.622 232.888 966.622 232.888 928.714 179.402C925.093 174.303 921.501 169.191 917.991 164.014C906.859 147.567 895.739 129.928 880.816 116.627L876.873 113.552Z" fill="url(#paint2_linear_3_40)"/>
<path d="M459.254 49.2058C460.342 49.5067 461.43 49.8076 462.551 50.1176C467.487 51.5028 472.315 53.1379 477.14 54.8637C478.089 55.203 479.038 55.5423 480.016 55.8919C481.903 56.5711 483.788 57.2571 485.671 57.9508C494.538 61.1627 502.704 62.0515 512.088 62.0593C513.052 62.0747 514.016 62.0902 515.01 62.1061C527.123 62.137 537.156 58.0697 548.282 53.7006C578.4 42.2182 607.468 39.9928 637.616 53.262C663.43 65.4548 681.456 88.598 691.499 114.892C694.826 125.451 696.539 135.339 696.452 146.356C695.548 146.36 694.645 146.365 693.714 146.37C685.104 146.418 676.496 146.49 667.887 146.588C663.463 146.637 659.04 146.678 654.616 146.698C622.561 146.851 593.772 148.97 569.948 172.738C564.92 178.144 561.092 184.349 557.341 190.678C555.143 194.3 555.143 194.3 552.619 196.823C551.869 196.153 551.12 195.483 550.347 194.793C536.103 182.653 520.691 178.947 502.152 180.421C492.264 182.473 484.284 186.746 476.006 192.422C473.133 194.3 473.133 194.3 469.348 195.562C468.933 194.797 468.518 194.033 468.091 193.245C456.851 173.445 440.178 158.642 418.536 151.255C400.992 146.501 383.304 146.768 365.237 146.686C360.888 146.661 356.539 146.608 352.191 146.558C343.72 146.465 335.249 146.4 326.777 146.356C326.941 143.143 327.115 139.932 327.295 136.721C327.34 135.819 327.385 134.918 327.431 133.989C328.695 112.029 341.993 88.8426 357.058 73.1779C357.983 72.2021 358.908 71.2262 359.862 70.2208C373.167 57.2485 389.508 49.3774 407.525 45.4208C408.969 45.0622 408.969 45.0622 410.443 44.6963C427.134 42.0519 443.283 44.279 459.254 49.2058Z" fill="url(#paint3_linear_3_40)"/>
<path d="M657.137 188.829C659.575 188.821 662.013 188.813 664.451 188.804C669.545 188.789 674.638 188.784 679.732 188.786C686.228 188.786 692.723 188.751 699.219 188.708C704.249 188.68 709.279 188.675 714.309 188.676C716.703 188.673 719.097 188.662 721.49 188.642C738.512 188.516 753.629 189.189 766.82 201.422C779.601 214.66 779.233 230.102 779.05 247.445C779.014 251.199 779.024 254.951 779.041 258.705C779.007 289.252 774.164 318.403 752.582 341.508C735.769 357.213 716.23 361.405 693.928 361.395C692.625 361.396 692.625 361.396 691.296 361.398C662.767 361.317 639.796 351.912 619.218 331.587C595.809 306.427 585.796 273.39 586.251 239.716C586.805 224.939 592.262 212.773 602.653 202.284C618.258 187.955 637.192 188.845 657.137 188.829Z" fill="url(#paint4_linear_3_40)"/>
<path d="M280.191 190.312C281.759 190.293 281.759 190.293 283.358 190.274C284.5 190.266 285.642 190.259 286.819 190.252C288.63 190.233 288.63 190.233 290.476 190.214C294.479 190.176 298.482 190.149 302.485 190.126C304.539 190.113 304.539 190.113 306.635 190.1C313.892 190.059 321.15 190.028 328.407 190.004C334.397 189.981 340.387 189.938 346.377 189.875C353.622 189.798 360.865 189.76 368.11 189.748C370.862 189.737 373.614 189.713 376.366 189.676C395.296 189.434 407.977 190.303 422.587 203.447C437.474 219.467 437.247 238.072 436.544 258.646C435.373 288.485 418.586 317.869 397.432 338.132C376.417 356.663 350.481 363.324 322.992 362.104C301.915 360.698 283.142 354.135 268.153 338.719C251.927 319.955 245.896 297.428 245.729 273.062C245.718 271.649 245.708 270.237 245.698 268.781C245.68 265.796 245.667 262.811 245.657 259.825C245.642 256.79 245.616 253.754 245.579 250.719C245.525 246.312 245.505 241.905 245.492 237.498C245.47 236.158 245.448 234.819 245.425 233.438C245.464 219.916 249.039 209.021 258.444 199.194C264.585 193.853 271.99 190.391 280.191 190.312Z" fill="url(#paint5_linear_3_40)"/>
<path d="M669.956 497.105C670.418 498.24 670.88 499.376 671.356 500.545C686.599 537.097 707.92 572.463 733.041 603.087C733.642 603.82 734.243 604.553 734.862 605.308C741.48 613.333 748.205 621.143 755.751 628.321C757.016 629.579 758.278 630.84 759.536 632.106C711.635 623.175 674.848 588.019 646.266 550.809C644.92 549.086 643.522 547.404 642.115 545.729C641.064 544.456 641.064 544.456 639.991 543.157C639.103 542.122 639.103 542.122 638.197 541.067C636.548 537.396 637.367 534.999 638.414 531.171C643.59 521.104 656.666 497.105 669.956 497.105Z" fill="url(#paint6_linear_3_40)"/>
<path d="M353.273 497.105C367.458 501.966 374.914 516.512 382.291 528.647C383.54 530.521 383.54 530.521 384.815 532.432C384.593 539.633 382.514 543.465 378.033 548.992C377.469 549.693 376.905 550.394 376.324 551.116C374.545 553.315 372.742 555.49 370.936 557.666C369.835 559.027 368.734 560.389 367.634 561.752C341.895 593.275 307.399 621.062 267.478 632.106C266.645 631.689 265.812 631.273 264.954 630.844C265.672 630.141 266.389 629.439 267.128 628.715C273.426 622.49 279.448 616.175 285.141 609.395C285.694 608.755 286.246 608.114 286.815 607.454C314.919 574.758 335.586 536.229 353.273 497.105Z" fill="url(#paint7_linear_3_40)"/>
<path d="M690.459 228.996C698.448 233.655 704.509 240.975 707.25 249.819C709.146 258.392 707.975 263.74 703.455 271.125C698.365 278.049 692.089 282.623 683.835 285.142C675.608 286.373 669.502 285.204 662.44 280.804C656.962 276.615 652.324 271.416 649.769 264.955C648.656 256.357 648.329 248.289 653.16 240.825C656.263 236.901 659.431 233.63 663.648 230.889C664.741 230.16 665.834 229.432 666.96 228.681C674.635 225.838 682.876 225.677 690.459 228.996Z" fill="#38091D"/>
<path d="M360.463 231.367C367.224 236.131 371.771 242.97 373.46 251.076C374.429 260.933 371.485 267.917 366.047 276.073C359.922 282.379 354.055 285.27 345.387 285.457C337.03 285.306 330.811 283.123 324.569 277.492C318.712 271.153 315.896 263.834 314.87 255.334C315.91 247.315 318.457 240.471 324.254 234.674C336.043 226.093 347.303 224.142 360.463 231.367Z" fill="#38091D"/>
<defs>
<linearGradient id="paint0_linear_3_40" x1="512.245" y1="229.181" x2="512.245" y2="842.169" gradientUnits="userSpaceOnUse">
<stop stop-color="#FF95A5"/>
<stop offset="1" stop-color="#E76578"/>
</linearGradient>
<linearGradient id="paint1_linear_3_40" x1="180.332" y1="83.8034" x2="180.332" y2="512.727" gradientUnits="userSpaceOnUse">
<stop stop-color="#FF95A5"/>
<stop offset="1" stop-color="#E76578"/>
</linearGradient>
<linearGradient id="paint2_linear_3_40" x1="842.405" y1="84.0416" x2="842.405" y2="516.109" gradientUnits="userSpaceOnUse">
<stop stop-color="#FF95A5"/>
<stop offset="1" stop-color="#E76578"/>
</linearGradient>
<linearGradient id="paint3_linear_3_40" x1="511.616" y1="43.5718" x2="511.616" y2="196.823" gradientUnits="userSpaceOnUse">
<stop stop-color="#FF95A5"/>
<stop offset="1" stop-color="#E76578"/>
</linearGradient>
<linearGradient id="paint4_linear_3_40" x1="682.669" y1="188.631" x2="682.669" y2="361.398" gradientUnits="userSpaceOnUse">
<stop stop-color="#FFB5C0"/>
<stop offset="0.915" stop-color="#F4E7E9"/>
</linearGradient>
<linearGradient id="paint5_linear_3_40" x1="341.109" y1="189.645" x2="341.109" y2="362.244" gradientUnits="userSpaceOnUse">
<stop stop-color="#FFB5C0"/>
<stop offset="0.915" stop-color="#F4E7E9"/>
</linearGradient>
<linearGradient id="paint6_linear_3_40" x1="698.398" y1="497.105" x2="698.398" y2="632.106" gradientUnits="userSpaceOnUse">
<stop stop-color="#FF95A5"/>
<stop offset="1" stop-color="#E76578"/>
</linearGradient>
<linearGradient id="paint7_linear_3_40" x1="324.885" y1="497.105" x2="324.885" y2="632.106" gradientUnits="userSpaceOnUse">
<stop stop-color="#FF95A5"/>
<stop offset="1" stop-color="#E76578"/>
</linearGradient>
</defs>
</svg>
